<?xml version="1.0" encoding="iso-8859-1"?>
<!-- Generator: Adobe Illustrator 19.0.0, SVG Export Plug-In . SVG Version: 6.00 Build 0)  -->
<svg version="1.1" id="Layer_1" xmlns="http://www.w3.org/2000/svg" xmlns:xlink="http://www.w3.org/1999/xlink" x="0px" y="0px"
	 viewBox="0 0 322.42 322.42" style="enable-background:new 0 0 322.42 322.42;" xml:space="preserve">
<g>
	<path style="fill:#005ECE;" d="M289.73,161.21c19.94-16.29,32.69-41.06,32.69-68.75c0-48.94-39.82-88.75-88.75-88.75h-72.46v40
		h32.46c26.88,0,48.75,21.87,48.75,48.75s-21.87,48.75-48.75,48.75h-32.46v40h32.46c26.88,0,48.75,21.87,48.75,48.75
		s-21.87,48.75-48.75,48.75h-32.46v40h72.46c48.93,0,88.75-39.81,88.75-88.75C322.42,202.27,309.67,177.5,289.73,161.21z"/>
	<polygon style="fill:#2488FF;" points="120,278.71 120,181.21 161.21,181.21 161.21,141.21 120,141.21 120,43.71 161.21,43.71 
		161.21,3.71 0,3.71 0,43.71 40,43.71 40,278.71 0,278.71 0,318.71 161.21,318.71 161.21,278.71 	"/>
</g>
<g>
</g>
<g>
</g>
<g>
</g>
<g>
</g>
<g>
</g>
<g>
</g>
<g>
</g>
<g>
</g>
<g>
</g>
<g>
</g>
<g>
</g>
<g>
</g>
<g>
</g>
<g>
</g>
<g>
</g>
</svg>
