<?xml version="1.0" encoding="iso-8859-1"?>
<!-- Generator: Adobe Illustrator 19.0.0, SVG Export Plug-In . SVG Version: 6.00 Build 0)  -->
<svg version="1.1" id="Layer_1" xmlns="http://www.w3.org/2000/svg" xmlns:xlink="http://www.w3.org/1999/xlink" x="0px" y="0px"
	 viewBox="0 0 385.444 385.444" style="enable-background:new 0 0 385.444 385.444;" xml:space="preserve">
<g>
	<path style="fill:#2488FF;" d="M42.345,315.794c-1.111-1.409-2.445-2.579-4.005-3.51c-1.561-0.93-3.271-1.575-5.13-1.936
		c1.679-0.299,3.225-0.884,4.635-1.755c1.409-0.869,2.624-1.964,3.645-3.285c1.02-1.318,1.814-2.79,2.385-4.409
		c0.569-1.62,0.855-3.33,0.855-5.131c0-2.398-0.511-4.574-1.53-6.524c-1.021-1.949-2.461-3.63-4.32-5.04
		c-1.86-1.409-4.11-2.489-6.75-3.24c-2.641-0.749-5.55-1.125-8.73-1.125c-2.4,0-4.741,0.211-7.02,0.63
		c-2.281,0.421-4.41,1.006-6.39,1.755c-1.98,0.751-3.75,1.665-5.31,2.745c-1.561,1.08-2.821,2.25-3.78,3.51l9.09,10.44
		c1.379-2.16,3.074-3.825,5.085-4.995c2.01-1.17,4.244-1.755,6.705-1.755c2.28,0,4.109,0.511,5.49,1.53
		c1.379,1.021,2.07,2.52,2.07,4.5c0,2.28-0.945,4.11-2.835,5.489c-1.89,1.382-4.516,2.07-7.875,2.07h-2.97v10.351h2.7
		c4.32,0,7.484,0.69,9.495,2.069c2.009,1.381,3.015,3.42,3.015,6.12c0,4.981-3.39,7.47-10.17,7.47c-2.88,0-5.355-0.435-7.425-1.305
		c-2.07-0.869-3.915-2.145-5.535-3.825L0,336.9c5.159,5.339,12.299,8.01,21.42,8.01c3.719,0,7.079-0.437,10.08-1.306
		c3-0.87,5.564-2.101,7.695-3.689c2.129-1.591,3.765-3.51,4.905-5.76c1.139-2.25,1.71-4.784,1.71-7.605c0-2.1-0.301-4.063-0.9-5.895
		C44.31,318.825,43.455,317.205,42.345,315.794z"/>
	<path style="fill:#2488FF;" d="M25.92,182.147c-1.111,0.78-2.61,1.681-4.5,2.7c-1.89,1.021-4.246,2.311-7.065,3.87
		c-2.641,1.5-4.83,3.03-6.57,4.59c-1.741,1.561-3.121,3.256-4.14,5.085c-1.021,1.831-1.741,3.855-2.16,6.075
		c-0.42,2.221-0.63,4.74-0.63,7.56h44.82v-12.96h-24.48c0.54-0.599,1.334-1.273,2.385-2.024c1.049-0.75,2.189-1.499,3.42-2.25
		c1.229-0.75,2.475-1.485,3.735-2.205c1.26-0.721,2.34-1.351,3.24-1.891c1.319-0.778,2.61-1.634,3.87-2.564
		c1.26-0.93,2.399-2.01,3.42-3.24c1.02-1.229,1.845-2.624,2.475-4.185c0.63-1.56,0.945-3.33,0.945-5.311
		c0-4.8-1.725-8.609-5.175-11.43c-3.451-2.819-8.415-4.23-14.895-4.23c-2.641,0-5.175,0.241-7.605,0.721
		c-2.43,0.48-4.666,1.125-6.705,1.935c-2.041,0.81-3.87,1.726-5.49,2.745c-1.62,1.021-2.911,2.07-3.87,3.149l9.18,10.62
		c1.74-1.979,3.54-3.584,5.4-4.814c1.859-1.229,4.05-1.845,6.57-1.845c2.219,0,3.929,0.51,5.13,1.529c1.2,1.021,1.8,2.371,1.8,4.05
		c0,0.842-0.241,1.575-0.72,2.205C27.824,180.662,27.029,181.368,25.92,182.147z"/>
	<path style="fill:#2488FF;" d="M12.15,60.29c1.409-0.63,2.685-1.319,3.825-2.07c1.139-0.749,1.98-1.484,2.52-2.205v22.95H5.715
		v12.96h38.88v-12.96h-11.43v-38.43h-14.67c-0.301,0.601-1.05,1.381-2.25,2.34c-1.201,0.961-2.551,1.905-4.05,2.835
		c-1.5,0.931-3.015,1.726-4.545,2.385c-1.53,0.661-2.776,0.99-3.735,0.99v13.32c1.139,0,2.444-0.194,3.915-0.585
		C9.299,61.43,10.739,60.919,12.15,60.29z"/>
	<rect x="83.444" y="92.722" style="fill:#005ECE;" width="302" height="40"/>
	<rect x="83.444" y="12.722" style="fill:#005ECE;" width="302" height="40"/>
	<rect x="83.444" y="332.722" style="fill:#005ECE;" width="302" height="40"/>
	<rect x="83.444" y="252.722" style="fill:#005ECE;" width="302" height="40"/>
	<rect x="83.444" y="172.722" style="fill:#005ECE;" width="302" height="40"/>
</g>
<g>
</g>
<g>
</g>
<g>
</g>
<g>
</g>
<g>
</g>
<g>
</g>
<g>
</g>
<g>
</g>
<g>
</g>
<g>
</g>
<g>
</g>
<g>
</g>
<g>
</g>
<g>
</g>
<g>
</g>
</svg>
