<?xml version="1.0" encoding="iso-8859-1"?>
<!-- Generator: Adobe Illustrator 19.0.0, SVG Export Plug-In . SVG Version: 6.00 Build 0)  -->
<svg version="1.1" id="Layer_1" xmlns="http://www.w3.org/2000/svg" xmlns:xlink="http://www.w3.org/1999/xlink" x="0px" y="0px"
	 viewBox="0 0 335 335" style="enable-background:new 0 0 335 335;" xml:space="preserve">
<g>
	<path style="fill:#2488FF;" d="M244.623,236.223c0,36.003-41.545,48.777-77.123,48.777c-38.368,0-67.031-13.346-74.805-34.828
		l-37.613,13.611c7.234,19.99,22.565,36.221,44.337,46.936C118.403,320.062,141.945,325,167.5,325
		c70.055,0,117.123-35.677,117.123-88.777c0-19.441-5.301-35.73-15.8-48.723H165.975
		C220.622,196.511,244.623,204.091,244.623,236.223z"/>
	<path style="fill:#2488FF;" d="M90.377,98.777C90.377,62.774,131.923,50,167.5,50c38.355,0,67.016,13.339,74.798,34.811
		l37.606-13.631c-7.242-19.979-22.575-36.199-44.341-46.907C216.583,14.936,193.047,10,167.5,10
		C97.445,10,50.377,45.677,50.377,98.777c0,19.443,5.306,35.733,15.816,48.723h103.072
		C114.447,138.474,90.377,130.927,90.377,98.777z"/>
	<rect y="147.5" style="fill:#005ECE;" width="335" height="40"/>
</g>
<g>
</g>
<g>
</g>
<g>
</g>
<g>
</g>
<g>
</g>
<g>
</g>
<g>
</g>
<g>
</g>
<g>
</g>
<g>
</g>
<g>
</g>
<g>
</g>
<g>
</g>
<g>
</g>
<g>
</g>
</svg>
